<?xml version="1.0" encoding="utf-8"?>
<!-- Generator: Adobe Illustrator 27.0.1, SVG Export Plug-In . SVG Version: 6.00 Build 0)  -->
<svg version="1.1" id="Capa_1" xmlns="http://www.w3.org/2000/svg" xmlns:xlink="http://www.w3.org/1999/xlink" x="0px" y="0px"
	 viewBox="0 0 2122 2122" style="enable-background:new 0 0 2122 2122;" xml:space="preserve">
<style type="text/css">
	.st0{fill:#00ACBF;}
	.st1{fill:#4E25B3;}
	.st2{fill:#FF9D00;}
	.st3{fill:#006C78;}
</style>
<g>
	<path class="st0" d="M1776.58,1794.07c-2.21,0-4.46-0.25-6.71-0.76c-70.15-16.05-137.5-44.67-198.41-83.44
		c-16.42-8.56-31.97-19.71-46.23-32.32c-49.83-38.17-94.08-83.54-130.37-134.51c-12.4-17.41-23.87-35.48-34.39-54.11
		c-3.47-1.57-7.03-2.95-10.69-4.15c-41.11-13.4-91.42-0.79-158.33,39.66c-6.93,4.19-13.88,8.48-20.84,12.79
		c-51.56,31.88-104.88,64.85-168.94,68.36c-81.66,4.5-148.42-39.82-212.95-82.65c-52.25-34.69-101.61-67.45-156.35-74.11
		c-33.59-4.1-68.3,1.94-105.03,8.32c-22.99,4-46.77,8.13-71.05,9.81c-134.72,9.37-270.22-63.22-337.09-180.56
		c-66.88-117.35-60.27-270.88,16.45-382.05c9.4-13.63,28.08-17.05,41.71-7.65c13.63,9.41,17.06,28.09,7.65,41.71
		c-63.91,92.62-69.42,220.53-13.7,318.29c55.72,97.76,168.59,158.19,280.84,150.43c21.21-1.47,42.45-5.16,64.94-9.07
		c39.41-6.85,80.17-13.94,122.55-8.77c68.83,8.38,126.5,46.65,182.26,83.68c58.98,39.14,114.74,76.07,176.5,72.73
		c48.79-2.67,93.43-30.27,140.68-59.49c7.14-4.41,14.25-8.81,21.36-13.11c42.85-25.9,103.28-56.83,166.44-53.14
		c-15.89-38.32-28.09-78.21-36.38-118.89c-3.85,3.55-7.82,7.02-11.95,10.36c-70.34,56.97-177.6,64.28-255.03,17.39
		c-77.43-46.9-120.64-145.34-102.75-234.07c17.89-88.73,95.88-162.73,185.43-175.95c75.25-11.08,142.75,15.97,207.36,49.27
		c20.16-53.73,48.43-102.07,84.06-143.2c11.56-13.34,23.94-25.84,36.97-37.41c-5.11-9.64-9.74-19.33-14.21-28.71
		c-5.23-10.94-10.17-21.27-15.52-31.01c-25.45-46.28-65.93-83.01-113.09-106.23c1.47,22.26,2.21,44.19,2.92,65.38
		c1.48,44.25,3.17,94.42-16.64,141.31c-20.56,48.67-72.47,93.89-132.02,86.2c-71.51-9.26-110.48-86.65-102.01-153.13
		c7.83-61.44,46.25-112.04,77.13-152.7c2.67-3.52,5.35-7.04,8.03-10.57c-105.21,20.14-192.49,111.06-208.02,217.11
		c-1.09,7.44-1.89,15.06-2.73,23.13c-2.63,25.05-5.34,50.95-17.15,76.27c-34.41,73.78-120.09,94.67-199.37,105.38l-72.63,9.81
		c19.58,35.84,31.86,75.46,43.21,112.1l1.91,6.18c1.5,4.81,3.03,9.67,4.62,14.56c48.74-26.26,93.54-35.92,136.06-29.41
		c38.26,5.82,75.39,29.84,96.9,62.67c18.12,27.64,23.81,58.99,16.05,88.27c-8.85,33.38-33.24,59.12-68.66,72.48
		c-43.84,16.54-96.68,10.8-134.66-14.63c-33.9-22.7-57.09-54.5-74.38-89.12c-4.42,3.24-8.87,6.55-13.41,9.92
		c-31.26,23.21-63.59,47.21-101.3,63.72c-86.55,37.89-185.8,24.4-246.99-33.55c-35.06-33.2-55.14-83.4-53.71-134.3
		c1.29-46.02,19.61-86.27,51.59-113.31c41.94-35.48,96.81-42.89,140.9-48.85l74.99-10.13c-18.7-9.49-39.31-17.13-60.6-25.02
		c-2.15-0.8-4.31-1.59-6.47-2.4c-57.88,14.59-108.69,9.21-149.75-16.36c-60.15-37.46-90.26-118.66-73.23-197.48
		c12.63-58.43,47.67-114.61,107.13-171.76c64.7-62.19,131.09-99.48,197.31-110.84c87.42-14.98,174.69,19.01,217.14,84.6
		c18.83,29.1,27.16,65.11,24.09,100.99c29.5-38.51,55.52-79.62,77.5-122.75c4.09-8.03,8.15-16.22,12.26-24.5
		c36.26-73.07,77.35-155.89,162.19-181.85c96.97-29.71,194.19,37.95,236.37,116.66c3.09,5.77,5.98,11.61,8.67,17.5
		c9.21-8.4,18.72-16.52,28.58-24.33c75.16-59.48,159.83-88.56,238.32-81.77c95.81,8.24,179.49,75.62,198.97,160.22
		c3.7,16.05,5.3,32.3,6.86,48.01c2.99,30.29,5.58,56.44,21.27,71.55c12.28,11.83,33.29,16.68,55.54,21.81
		c30.68,7.09,65.45,15.12,89.46,44.3c17.37,21.12,24.19,48.77,19.2,77.88c-0.85,4.95-2.01,9.87-3.47,14.73
		c67.04,60.29,116.25,144.82,132.63,239.95c24.61,142.89-22.62,296.49-123.26,400.87c-43.05,44.66-95.47,79.88-152.61,104.04
		c3.05,17.15,4.65,34.79,3.9,52.8c-2.28,54.57-28.24,102.25-67.68,126.68c26.2,10.33,53.13,18.72,80.53,24.99
		c16.15,3.7,26.24,19.78,22.55,35.92C1802.61,1784.66,1790.25,1794.07,1776.58,1794.07z M1601.49,1657.94
		c20.74,10.11,41.99,13.19,61.39,5.17c31.03-12.85,46.26-50.66,47.59-82.43c0.42-10.01-0.18-20.08-1.52-30.16
		c-60.31,16.91-123.9,22-185.96,13.64c-5.09-0.69-10.06-1.48-14.9-2.38c5.82,8.85,11.61,17.64,17.5,26.16
		c10.69,15.46,23.3,30.2,36.94,42.69C1575.14,1640.25,1588.14,1649.36,1601.49,1657.94z M1564.94,1359.02
		c-40.11,0-71.68,8.82-93.87,26.26c-21.35,16.77-36.52,49.39-24.95,74.95c13.85,30.61,59.13,41,84.88,44.47
		c54.68,7.38,110.72,2.75,163.77-12.39c-3.39-10.47-7.04-20.88-10.66-31.2c-10.62-30.3-21.84-62.29-35.41-93.36
		c-26.69-4.58-52.57-8.21-78.63-8.69C1568.35,1359.04,1566.63,1359.02,1564.94,1359.02z M1718.52,1379.98
		c7.97,20.74,15.21,41.36,22.19,61.29c3.46,9.87,7.03,20.05,10.44,30.5c46.6-20.88,89.32-50.29,124.76-87.05
		c3.53-3.66,6.98-7.39,10.35-11.18c-40.78,13.8-89.32,16.87-147.02,9.43C1732.32,1382.07,1725.4,1381.06,1718.52,1379.98z
		 M1342.07,1245.87c7.07,55.72,22.21,110.5,44.78,161.92c7.47-26.33,23.67-51.2,47.17-69.66c34.27-26.93,80.43-40.07,137.15-39.01
		c14.6,0.27,29.04,1.39,43.31,3.03c-11.51-18.16-24.52-35.14-39.49-50.25c-47.28-47.7-130.51-78.59-191.64-41.88
		C1368.29,1219.06,1355.12,1231.75,1342.07,1245.87z M1690,1314.21c18.8,3.4,38.12,6.85,56.92,9.27
		c64.63,8.34,113.56,1.63,149.61-20.47c36.17-22.18,62.47-71.91,43.98-110.58c-11.35-23.73-39.57-42.31-75.49-49.69
		c-26.2-5.39-53.76-5.41-82.93-5.43c-10.92-0.01-21.84-0.02-32.73-0.31c-29-0.75-68.99-3.76-106.69-19.2
		c-59.82,10.42-122.14,6.67-180.02-11.66c-39.19-12.42-76.44-31.13-112.52-50.44c-4.1,18.66-7.24,37.87-9.39,57.57
		c-2,18.38-3.08,36.87-3.23,55.37c4.77-3.53,9.75-6.9,14.98-10.04c66.82-40.15,179.34-35.49,265.12,51.08
		C1648.24,1240.6,1671.31,1276.61,1690,1314.21z M700.68,1219.09c13.84,29.46,31.85,55.92,57.38,73.01
		c21.7,14.53,54.65,17.96,80.12,8.35c11.88-4.48,27.05-13.63,31.86-31.74c4.28-16.15-2.12-30.68-8.24-40.02
		c-12.28-18.73-34.17-32.96-55.77-36.25C774.97,1187.73,740.33,1196.44,700.68,1219.09z M1140.53,976.28c-8.48,0-17,0.59-25.58,1.86
		c-65.39,9.65-122.33,63.68-135.4,128.47c-13.06,64.79,18.49,136.67,75.02,170.92c56.54,34.23,134.86,28.89,186.22-12.7
		c13.72-11.11,26.03-24.74,38.89-39.23c-3.29-39.59-2.88-79.43,1.42-118.84c3.02-27.7,7.82-54.59,14.34-80.51
		C1243.35,998.85,1192.75,976.28,1140.53,976.28z M564.28,1038.49l-128.87,17.41c-46.24,6.24-83.72,12.8-110.2,35.2
		c-18.78,15.88-29.56,40.46-30.37,69.2c-0.94,33.61,12.47,67.74,35,89.07c43.25,40.95,117.95,50.05,181.7,22.16
		c31.48-13.78,59.71-34.74,89.6-56.94c8.39-6.23,16.96-12.6,25.7-18.86c-3.47-10.07-6.69-20.11-9.75-29.95l-1.93-6.21
		C601.87,1116.62,588.22,1072.54,564.28,1038.49z M1758.6,1077.21c7.83,0.12,15.67,0.12,23.52,0.12
		c30.88,0.02,62.81,0.04,94.97,6.65c47.86,9.84,86.5,33.9,108.7,67.1c4.71-38.36,4.01-77.33-2.55-115.43
		c-13.08-75.94-51.88-144.91-104.52-195.95c-9.15,10.09-19.72,18.92-31.32,25.91c-0.76,0.46-1.53,0.92-2.29,1.37
		c20.25,37.41,20.07,87.12-2.24,128.97C1825.73,1028.13,1797.43,1055.39,1758.6,1077.21z M1366.97,996.65
		c37.25,20.14,75.56,40.19,113.79,52.31c29.42,9.33,60.22,14.17,91.09,14.6c-20.22-28.02-29.42-61.65-23.92-93.64
		c6.44-37.48,31.82-69.96,70.89-92.77c-41.8,5.59-85.28,5.51-123.87-18.68c-9.82-6.16-18.38-13.36-25.97-21.26
		c-9.1,8.45-17.8,17.43-26.03,26.94C1410.36,901.75,1384.79,946.52,1366.97,996.65z M1788.88,889.91
		c-17.19,4.77-34.56,8.18-51.67,11.54c-15,2.94-29.16,5.72-42.94,9.34c-38.13,10.01-81.07,33.47-87.23,69.3
		c-4.4,25.61,12.04,55.59,39.98,72.91c1.13,0.7,2.28,1.39,3.45,2.06c21.04-4.93,41.57-11.98,61.16-21.13
		c38.04-17.77,64.39-40.03,78.34-66.19C1802.04,945.07,1805.1,911.94,1788.88,889.91z M517.57,927.08
		c22.28,10.27,43.79,22.74,63.09,39.92c2.79,2.49,5.5,5.05,8.12,7.66l105.07-14.19c63.22-8.53,130.84-23.68,153.05-71.3
		c7.56-16.21,9.64-36.1,11.85-57.16c0.87-8.32,1.77-16.92,3.04-25.58c19.28-131.59,128.26-244.25,259.14-267.89
		c19.36-3.49,39.01-4.97,58.51-4.65c9.61-11.66,19.46-23.17,29.65-34.43c-4.36-12.23-9.51-24.12-15.63-35.52
		c-31.33-58.46-101.98-107.21-165.97-87.65c-60.14,18.4-93.63,85.89-126.02,151.16c-4.2,8.46-8.36,16.85-12.54,25.05
		c-79.4,155.88-208.05,287.21-362.26,369.79C523.62,923.95,520.59,925.53,517.57,927.08z M403.45,734.19
		c-29.69,0-55.79,8.42-67.62,29.71c-6.64,11.95-7.69,25.7-3.11,40.85c8.49,28.07,35.48,57.91,67.17,74.26
		c12.11,6.24,24.83,11.62,38.07,16.78c21.5-7.04,42.2-16.6,60.39-26.34c45.59-24.42,88.79-53.42,128.88-86.27
		c-45.75,3.09-91.36-13.49-132.9-28.57c-7.83-2.84-15.59-5.66-23.26-8.31C449.48,738.83,425.48,734.19,403.45,734.19z
		 M557.32,519.01c-10.07,0-20.26,0.84-30.42,2.58c-54.18,9.29-109.99,41.25-165.89,94.97c-50.57,48.61-80.03,94.8-90.06,141.2
		c-9.94,46.01,2.77,106.77,46.31,133.88c0.44,0.27,0.87,0.54,1.31,0.81c-20.38-20.86-35.69-45.33-43.26-70.34
		c-9.33-30.84-6.52-61.04,8.1-87.35c40.18-72.29,136.76-69.51,207.25-45.15c7.96,2.75,16.02,5.67,24.14,8.62
		c50.18,18.21,97.56,35.42,137.06,18.33c19.74-8.54,34.68-26.68,42.06-51.07c8.88-29.33,4.91-62.22-10.37-85.82
		C659.11,541.9,609.82,519.01,557.32,519.01z M1206.63,595.78c-12.83,16.28-25.34,32.75-37.74,49.07
		c-27.93,36.79-59.6,78.48-65.4,124c-4.61,36.2,16.32,81.68,50.22,86.07c29.53,3.8,57.62-22.95,69.08-50.06
		c14.67-34.73,13.22-77.88,11.95-115.96c-0.96-28.73-1.97-58.96-4.96-89.12C1222.12,598.11,1214.4,596.77,1206.63,595.78z
		 M1718.34,803.55c26.44,0,56.31,4.21,82.38,18.82c5.43-2.4,10.67-5.08,15.7-8.1c5.63-3.4,10.93-7.69,15.68-12.57
		c-47.22-32.02-101.12-50.78-155.73-50.78c-0.49,0-0.98,0-1.46,0.01c-54.17,0.33-109.36,17.95-158.08,49.19
		c3.13,2.8,6.44,5.33,9.97,7.54c32.2,20.19,78.74,11.67,123.74,3.45l6.27-1.15C1669.21,807.71,1692.08,803.55,1718.34,803.55z
		 M1284.33,553.61c72.34,26.29,135.79,77.45,173.07,145.23c6.18,11.24,11.73,22.84,17.09,34.06c2.87,5.99,5.7,11.93,8.58,17.7
		c58.58-37.87,125.5-59.25,191.47-59.66c0.62,0,1.26-0.01,1.88-0.01c62.61,0,123.57,19.18,177.43,52.58
		c-1.11-4.67-3.18-8.84-6.18-12.49c-11.06-13.45-32.19-18.33-56.65-23.97c-27.85-6.44-59.41-13.72-83.64-37.05
		c-31.6-30.43-35.72-72.09-39.36-108.85c-1.43-14.47-2.79-28.15-5.62-40.46c-13.8-59.94-75.06-107.85-145.65-113.92
		c-63.25-5.42-132.83,19.08-195.97,69.04c-15.5,12.27-30.19,25.61-44.26,39.71C1279.69,528.14,1282.24,540.86,1284.33,553.61z"/>
	<circle class="st1" cx="158.75" cy="912.47" r="46.11"/>
	<circle class="st2" cx="1800.11" cy="1764.07" r="46.11"/>
	<path class="st3" d="M1229.78,599.78l-0.06-1.8c-0.93-28.04,19.19-53.14,47.05-56.48c1.69-0.2,3.45-0.36,5.26-0.48
		c-1.62-8.53-3.38-17.05-5.49-25.51c0,0-38.94,40.11-69.91,80.27C1214.4,596.77,1222.12,598.11,1229.78,599.78z"/>
	<g>
		<path class="st3" d="M321.87,895.24c-1.53-1.2-2.99-2.42-4.61-3.6C317.26,891.63,318.82,892.94,321.87,895.24z"/>
		<path class="st3" d="M435.31,958.91c-65.72-29.68-101.54-54.69-113.44-63.67c32.83,25.77,45.81,56.47,50.45,71.62
			C392.19,967.11,413.23,964.48,435.31,958.91z"/>
	</g>
	<path class="st3" d="M502.37,986.33l-18.81,2.54c47.29,10.96,56.46,39.91,58.16,52.66l22.56-3.05
		C543.17,1000.94,502.37,986.33,502.37,986.33z"/>
	<path class="st3" d="M709.9,1236.9c-3.25-5.78-6.35-11.71-9.21-17.81c0,0-38.78,16.43-50.38,33.73
		c3.56,7.14,7.45,14.11,11.56,20.95C668.04,1260.73,681.62,1242.48,709.9,1236.9z"/>
	<path class="st3" d="M1412.13,1565.98c40.92-11.71,80.77-1.46,103.37,7.01c-2.47-3.72-4.94-7.46-7.42-11.22
		c2.25,0.42,4.62,0.74,6.93,1.11c-9.1-1.95-52.85-12.24-104.34-40.16c-57.93-31.41-23.82-114.93-23.82-114.93
		c-37.45,12.67-26.38,81.13-26.38,81.13c10.52,18.63,21.99,36.7,34.39,54.11C1400.41,1550.83,1406.22,1558.45,1412.13,1565.98z"/>
	<path class="st3" d="M1718.52,1379.98l-69.81-12.22c4.88,11.18,9.38,22.48,13.74,33.78c27.18-6.73,51.47,1,67.38,8.95
		C1726.19,1400.4,1722.45,1390.21,1718.52,1379.98z"/>
	<path class="st3" d="M1710.38,1568.73c14.74-7.2,35.11-13.55,59.5-11.86c-0.68-8.94-1.85-17.78-3.4-26.49l-57.54,20.14
		C1709.76,1556.6,1710.18,1562.67,1710.38,1568.73z"/>
	<path class="st3" d="M1350.12,1055.69l-54.68-29.43c-3.43,13.63-6.35,27.54-8.82,41.69c25.79-6.43,46.33,3.17,58.83,12.14
		C1346.86,1071.87,1348.36,1063.71,1350.12,1055.69z"/>
	<path class="st3" d="M1250.03,1256.77c17.92,15.28,19.58,42.61,17.89,62.55c3.6-2.54,7.19-5.1,10.62-7.88
		c4.13-3.34,8.11-6.81,11.95-10.36c-6.68-29.24-10.81-75.48-10.81-75.48C1269.78,1236.77,1260.18,1247.38,1250.03,1256.77z"/>
	<g>
		<path class="st3" d="M1758.6,1077.21c7.61-4.27,14.69-8.82,21.48-13.51C1772.94,1067.52,1765.74,1071.94,1758.6,1077.21z"/>
		<path class="st3" d="M1782.12,1077.33c-7.84-0.01-15.69-0.01-23.52-0.12c-51.66,38.13-115.94,40.59-115.94,40.59
			c18.34,7.51,37.21,12.05,55.11,14.85c16.44-21.13,50.13-48.14,87.99-55.31C1784.55,1077.34,1783.33,1077.33,1782.12,1077.33z"/>
	</g>
	<path class="st3" d="M1485.87,852.16c4.78-15.23,18.79-31.56,54.94-37.8c-4.91-1.76-9.6-3.94-14.01-6.71
		c-3.53-2.21-6.84-4.74-9.97-7.54c0,0-33.95,23.44-47.85,37.1C1474.12,842.57,1479.75,847.56,1485.87,852.16z"/>
	<path class="st3" d="M627.23,783.17c28.82,1.48,35.73,29.25,37.21,46.98c44.18-36.13,84.78-76.67,121.14-120.69
		c-39.09-35.49-20.16-71.26-20.16-71.26l-7.43,9.85C747.02,775.03,627.23,783.17,627.23,783.17z"/>
	<path class="st3" d="M1300.75,626.35c-0.62-18.84,2.66-42.4,19.39-57.26c-11.64-5.82-23.58-11.04-35.8-15.48
		c0,0,7.08,62.21,7.43,67.91C1294.81,623.02,1297.75,624.74,1300.75,626.35z"/>
	<path class="st3" d="M1815.03,790.89c5.78,3.41,11.48,7.01,17.08,10.81c35.2-18.63,21.75-58.18,21.75-58.18
		c-6.46-4-13.02-7.79-19.67-11.37C1841.98,758.97,1826.66,779.71,1815.03,790.89z"/>
	<path class="st3" d="M1798.3,911.24c12.4-9.58,32.81-20.35,57.83-15.36c-2.48-10.15-6.14-19.89-11.02-28.9
		c0,0-30.03,14.32-56.24,22.93C1793.56,896.26,1796.59,903.55,1798.3,911.24z"/>
</g>
</svg>
