<?xml version="1.0" encoding="utf-8"?>
<!-- Generator: Adobe Illustrator 27.0.1, SVG Export Plug-In . SVG Version: 6.00 Build 0)  -->
<svg version="1.1" id="Layer_1" xmlns="http://www.w3.org/2000/svg" xmlns:xlink="http://www.w3.org/1999/xlink" x="0px" y="0px"
	 viewBox="0 0 1573.6 1280" style="enable-background:new 0 0 1573.6 1280;" xml:space="preserve">
<style type="text/css">
	.st0{display:none;}
	.st1{display:inline;fill:#FFFFFF;}
	.st2{display:inline;fill:#CD9E8B;}
	.st3{display:inline;fill:#000309;}
	.st4{font-family:'BrandonGrotesque-Black';}
	.st5{font-size:36px;}
	.st6{letter-spacing:4;}
	.st7{font-size:24px;}
	.st8{letter-spacing:3;}
	.st9{fill:#33BFC4;}
	.st10{fill:#99DFE1;}
	.st11{fill:#D6B39E;}
	.st12{fill:#714823;}
	.st13{fill:#E7CAC1;}
	.st14{fill:#000309;}
	.st15{fill:#CD9E8B;}
	.st16{fill:#04080B;}
	.st17{fill:#EDC4B7;}
	.st18{fill:#020F0A;}
	.st19{fill:#E7E9E8;}
	.st20{fill:#D8AE99;}
	.st21{fill:#04080F;}
	.st22{fill:#EDC4B4;}
	.st23{fill:#B4976D;}
	.st24{fill:#191806;}
	.st25{fill:#EDF4E2;}
	.st26{fill:#F5EEE4;}
	.st27{opacity:0.25;fill:#A1A8A5;enable-background:new    ;}
	.st28{fill:#A43832;}
	.st29{fill:#71493D;}
</style>
<g id="Reference" class="st0">
</g>
<g id="BG" class="st0">
	<rect id="Blue" x="-173.2" class="st1" width="1920" height="1280"/>
	<path id="Ross_x27_s_Neck" class="st2" d="M708.9,615.2c0,0,4.4,17.2,63.4-4.8c3-4,0.3-53.8-16.3-76.9S663.4,548,708.9,615.2"/>
</g>
<g id="Text" class="st0">
	<text transform="matrix(1 0 0 1 515.3741 1106.2168)" class="st3 st4 st5 st6">I’LL BE THERE FOR YOU</text>
	<text transform="matrix(1 0 0 1 685.9222 187.2168)" class="st3 st4 st5 st6">FRIENDS</text>
	<text transform="matrix(1 0 0 1 706.7823 216.0168)" class="st3 st4 st7 st8">1994-2004</text>
</g>
<g id="Table">
	
		<rect id="Bottom" x="236.7" y="1019.4" transform="matrix(0.9999 -1.290066e-02 1.290066e-02 0.9999 -13.3663 9.962)" class="st9" width="1057.6" height="43.3"/>
	
		<rect id="Top" x="236.3" y="946.5" transform="matrix(0.9999 -1.290066e-02 1.290066e-02 0.9999 -12.7052 9.9578)" class="st10" width="1058.4" height="86.6"/>
</g>
<g id="Rachel">
	<path id="Face_00000165215981469652447690000001712876044890071938_" class="st11" d="M341.8,627.3c10,23.8,33.3,24.5,53.4,49.6
		c10,12.6,57.8,7.5,70.3-17.6c5-11.3,32.6-23.8,40.2-43.9c7.5-20.1,20.6-37.6-7.9-148.7C469.3,355.5,219.4,366.8,341.8,627.3z"/>
	<path id="Neck_00000168808589113193851130000016148125485829520061_" class="st11" d="M345.6,634.5c0,0,11.9,168-4.4,232
		c-16.3,64,88.6-86.6,119-199.6S345.6,634.5,345.6,634.5z"/>
	<path id="Hair_00000109026599716188606680000012346897763147777958_" class="st12" d="M439.1,695.8c0,0,156.9-99.2,5-254.9
		c-21.3-3.8-146.8-14.4-69,171.7c0-0.7-28.9-18.5-39-48.7c1.3,0-36.4,41.4,36.4,108c-1.3,1.3-8.8-2.5-11.3-5c0,0,6.3,11.3,10,13.8
		c0,0-61.5-1.3-94.2-55.2c-32.6-54,7.5-355.3,150.7-264.9c-1.3-13.8,8.8-13.8,12.6-5c0,0,38.9-21.3,59,26.4
		c10,2.5,27.6,11.3,43.9,43.9C559.6,458.5,621.2,682,439.1,695.8z"/>
</g>
<g id="Chandler">
	<path id="Neck" class="st13" d="M75.6,432.7l-26.4,18.8c0,0-0.4,248.6,117.8,155.7C166.3,607.3,75.6,432.7,75.6,432.7z"/>
	<path id="Face" class="st13" d="M87.6,458.5c0,0-21.3,6.3-21.3-46.5s16.3-41.2,21.3-40.7s17.9,22.7,19.6,43
		c0.9,0.5,55.7-90.2,55.7-90.2s90.8-26.1,151.5,67.3c0.8,1-5.2,82.8-27.8,85.3c0,0,8.8,49-52.1,104.8c-8.8,12.6-32.6,55.2-89.1,12.6
		C88.8,551.4,85.1,516.2,87.6,458.5z"/>
	<path id="Hair" class="st14" d="M66.2,437.6c0,0-7.5,2-10-11.8c1.3-10,2.5-32.6,20.1-71.6c0-25.1,2.5-57.8,18.8-62.8
		c0,0-6.3-38.9,59-61.5c1.3,0,28.2-20.1,69.3,0c0.7,1.3,3.3-9.1,19.7-8.9c1.5,0.3-18.7,10.2-6.2,15.2c1.3,1.3,16.3-6.3,54,20.1
		c-1.3,0-5,5-2.5,7.5s15.1,2.5,22.6,15.1c0,0,5.6-14,3.4-25.8c0.7-1.1,5.4,23.3,4.1,39.6c0,0,16.3-20.1,28.9-17.6
		c-1.3,0-26.4,10-21.3,31.4c0,0,25.1-7.5,32.6-5c0,0-28.9,6.3-28.9,10c10,3.8,10.2,8.3,16.4,9.2c0,0-2.6,0.9-0.1,7.1
		c0,0,2.5,17,12.6,23.6c0,0,7.5,20.4-13.8,34.2c-21.3,13.8-22.6,38.9-22.6,38.9s-1.9,16-16.7,23.7c0.7,0.3,4.1-47.6,6.6-53.8
		c0,0-42.7-13.8-71.6-37.7c-28.9-23.9-2.5,11.3-60.3-26.4c0,0-15.1,20.1-26.4,23.9S121,422.5,108,427.3c-13.1,4.8-0.5-41.5-20.6-56
		c0,1.1-18.7-9.1-20.6,24s1.7,42.5,1.7,42.5L66.2,437.6z"/>
</g>
<g id="Ross">
	<path id="Face_00000095327697513123123530000003548512139281792440_" class="st15" d="M542.1,390.7c-4,10.7-0.6,26.5,0.9,39.2
		c1.9,15.7,5.3,30.5,10.4,33.6c-5,13.8,20.1,106.7,46.5,113c5,1.3,20.1,46.5,36.4,49c16.3,2.5,61.5,21.3,105.5-125.5
		c0.8,3.4,2.4,5.4,4.4,6.1c9.6,3.2,40.8-50,27-87.7c-12.2-33.3-54.5-42.5-90.4-50.2C628,356.3,553.7,359.9,542.1,390.7z"/>
	<path id="Hair_00000014618633640300093200000016916946954615223437_" class="st16" d="M542,422.7c0,0-7.5-17-6.3-35.8
		c-6.3,1.3-17.6-7.5-12.6-16.3c0,0-2.3,1.3-5.5,0c1,0,9.3-5,8.1-20.1c-1.3-8.8,7.5-11.3,8.8-21.3s71.6-106.7,141.9-70.3
		c0,0-2.5-6.3-16.3-11.3c0,0,10-2.5,17.6,3.8c0,0,2.5-7.5,5-7.5s-7.5,17.6,8.8,20.1c0,0,11.3-5,23.8,0c-1.3,1.3-13.8,1.3-7.5,6.3
		c0,0,103-0.8,65.9,191.1c0-0.5,3.1-45.4-6.9-45.4s-42.4,13.6-31.4,51.5c-1.3,10-13.8,7.5-21.3-41.4c-21.3,0-31.4-76.6-172-35.1
		C542.1,390.7,539.5,405.8,542,422.7z"/>
</g>
<g id="Monica">
	<path id="Face_00000156547587364423049480000003274057195606676384_" class="st17" d="M849.7,590.3c0,0,3.4,56.3,85.8,80.9
		c0,0,47,16,53.4-24.3c0,0,16.8-31.5,19.8-56.6c1.6-13.3,4.1-15.7,6.2-22.4c4.4-14,4.5-28.5,3.7-39.1c-0.4-5.5-1.1-9.6-1.3-10.7
		c-2.1-13.2-4.6-38-6.9-87.3c-9.6-4.3-42.7-18.6-81.7-6.5c-26.8,8.3-55.6,29.2-79,75.2l-5,64.4l-20.9-22.1l-15.5,26
		C808.2,567.7,838.4,614.2,849.7,590.3z"/>
	<path id="Neck_00000037686508653912463090000006912507012383720895_" class="st17" d="M952.6,808.8c0,0,9.5-103.4,26.7-120.1
		L958,674.4l-108.3-84l-64.2,48.8c1.5,21.8,3.4,26.4,4.8,26.5c3.3,0.2,5.4-24.4,9.8-24.4c4.3,0,7.3,23.3,7.5,25.1
		c2.3,18.4,0.7,32.5,0.6,33.3c-1.7,15.3,15,47.1,95.4,119.3C903.7,818.8,942.6,818.8,952.6,808.8z"/>
	<path id="Hair_00000150061976486173323740000011258714735081523391_" class="st18" d="M851.3,598.7c0,0-0.6,34.2,16.2,45.9
		c0.9,0.8-1.6,0.8-8.1-2.5c0,0,12.5,25.6,23.1,31.2c0,0-10.1,2.5-27.7-6.3c12.6,13.8,18.8,81.2-65.3,65.1c0,0.4,3.8-2.3,1.3-9.9
		c0,0,35.2-7.5,25.1-42.7c0,0,2.5,28.9-20.1,38.9c1.3,1.3,25.1-18.8,6.3-71.6c0,0-18.3,61.5-51.8,57.8c0.7,0,35-2.9,23.3-65.5
		c0.5-0.8-25.5-21.1-45.6,14c0,1.3,5-28.9,16.3-38.9c0-1.3,1.3-273.7,113-267.4c1.3-22.6,60.3-35.1,91.7,2.5
		c0,3.8,15.8-6.8,30.5,7.9c14.7,14.7,48.2,33.2,48.4,112.5s-10.3,228.6-72.2,234.9c-15.9,1.3,2.5-30.2,2.5-30.2s25.7,1.5,30.9-27.4
		c0,0,20.9-39.9,21.2-65.2c-0.5-10,1.3-10.6,3.5-16c3.3-8.3,5.7-24.5,5-36.9c-0.7-12.5-3.2-21.9-5-28.3c-4.3-15-11.7-38-24.6-67.5
		c-12.3-4-40.8-12.4-69.5,0.4c-28.5,12.7-57.1,45.8-67.3,124.2c0,0-18.8-8.8-16.3,27.6c2.5,1.3-6.3-2.5-1.3-27.6
		c0,1.3-8.8,2.5-11.3,28.9c0,0,15.1,20.1,26.4,3.8L851.3,598.7z"/>
	<g id="Earrings">
		<ellipse id="bottom_2" class="st19" cx="840.9" cy="611.7" rx="6.3" ry="10"/>
		<ellipse id="bottom_1" class="st19" cx="830.8" cy="600.4" rx="3.8" ry="6.3"/>
		<circle id="top_2" class="st19" cx="838.4" cy="595.3" r="2.5"/>
		<circle id="top_1" class="st19" cx="829.6" cy="590.3" r="1.3"/>
	</g>
</g>
<g id="Joey">
	<path id="Head" class="st20" d="M1027.7,472c-3.5,12.8,30.4,90.7,53,104.5c5,13.8,35.2,86.6,96.7,3.8
		c6.3-8.8,21.3-133.1,12.6-168.2l8.8-33.9l-194-16.3C1004.7,361.8,1014.3,459.8,1027.7,472z"/>
	<path id="Hair_00000022527604520250963200000013905405642474540977_" class="st21" d="M1075.7,399.5c-6.5,3.3-46.5-44-68.4-15.7
		c0,0-30.7,0.6-28.2-29.5s18.8-66.5,32.6-64c1.3,0-9.8-2.8-13.1-0.1c1,0.2,9.3-6.1,14.3-6.1c-1.3,1.3,1.3-5-6.3-2.5
		c-1.3,0,5-8.8,12.6-7.5c0,0,2.5-3.8,0-6.3c0,0,10-2.5,13.8-1.3c0,0-3.8-5-8.8-3.8c0,0,8.8-6.3,16.3-5c0,0,1.3-2.5,0-3.8
		c0,0,7.4-2.5,13.1,0c0.1,0,0.7-5-6.8-5c0,0,5-3.8,21.3-2.5c0,0,1.3-6.3-8.8-3.8c0,0,8.8-6.3,20.1-3.8c0,0,6.3-2.5,1.3-3.8
		c0,0,0-5,17.6-1.3c0,0,1.3-2.5-1.3-3.8c1.3,0,3.1-4.4,20.7-4.4s15.7,3.1,15.7,3.1s22.6,2.5,32.6,18.8c0,0,3.8,0,2.5-5
		c0,0,7.5,0,13.8,11.3c0,0,15.1-1.3,23.8,5c-1.3,0-10-1.3-10,3.8c0,0,25.1-2.5,31.4,11.3c0,0-11.3-7.5-15.1-2.5
		c-1.3,0,17.6,17.6,21.3,18.8c0,0-8.8,0-10-2.5c0,1.3,10,13.8,13.8,16.3c0,0-2.5,1.3-3.8,1.3c0,0,3.8,33.9,8.8,33.9c0,0-5,2.5-5,0
		c1.3,0,1.3,11.3,1.3,13.8s-49,59-49,59s-8.8-6.3-10-10C1182.4,394.5,1142.2,365.6,1075.7,399.5z"/>
</g>
<g id="Phoebe">
	<path id="Neck_00000065034185896754898600000014580017605595414423_" class="st22" d="M1276.2,689.7c0,0,7.9,33.2,1.6,52.3
		s145.7,22.2,133.1-71c1.1,0.6-18.7-13.1-29.4-74.5S1276.2,689.7,1276.2,689.7z"/>
	<path id="Bottom_Hair" class="st23" d="M1195.1,625.2c0,0,16.1,95.7-19,119.5c0.1,1.3,17.2-6.9,19.3-10.3c0.4-0.7-0.5,17.8-8,19.7
		c1.3,0,16.3-1.9,26.4-8.1c0,0-8.8,62.8-27.6,69c-1.3,0,8.8,0,18.8-10c-1.3,1.3,6.3,3.8-5,17.6c0,0,8.8,0,11.3-6.3
		c0,0,0,30.1-26.4,38.9c0,1.3,5,10,8.8,10c0,0-7.5,2.5-13.8,1.3c0,0,15.1,20.1,28.9,8.8c15.1,17.6,109.2-5,49.4-182.2
		C1203.2,530.3,1195.1,625.2,1195.1,625.2z"/>
	<path id="Face_00000011716400750872459330000004696926628442920636_" class="st22" d="M1178.6,529.9
		c22.6,15.2-37.6,22.8,40.2,133.3c-6.3,20.1,43.9,64.5,121.1-18.6c0,0,20.8-24.1,23.9-51.7c3.6,2.9,9,6.2,14.4,5
		c6.5-1.3,8.5-7.8,18.8-28.9c10.7-21.8,13.5-25,13.8-33.9c0.1-3.7,0.7-18.5-7.2-23.2c-8-4.7-23.5,1.8-36.1,18l-35.7-105.3
		l-141.9,60.3L1178.6,529.9z"/>
	<path class="st23" d="M1181.8,533.2c1.1,3.6-11.3-3.8-2.5-47.7c-10-12.6,6.6-65.2,11.4-65.9c-8.6,13.2-5.9-55.8,53.8-63.4
		c5.8-0.8,61.8-41,101.7-18.8c0,0,45.2,0,71.6,38.9c27.6,5,41.4,103,41.4,103s58.1,216,48.5,230.4c0,0,1.7,28.2-18.4,34.5
		c0,0-5,40.2-26.4,46.5c0,0-4.4,87.3-49.6,107.3c-45.2,20.1-79.1-11.3-79.1-11.3c60.3,5,50.2-92.9,50.2-92.9s-33.7-115.7-3-197.2
		c0,0,43.2-63.9,20.6-86.5c-2.5,0-21.3,36.4-30.1,40.2s-22.6-17.6-22.6-17.6s-13.8-66.5-32.6-71.6c-1.3-1.3-52.7,57.8-69.1,54
		c0,0,26.4-12.8,30.2-25.9c-0.1,0.2-22.6,17.1-32.7,15.8c0,1.3,20.1-8.8,25.1-18.8c0,0-26.4,16.3-31.4,15.1
		c1.3,1.3,40.2-23.9,41.4-33.9C1279.1,468.5,1178.6,522.5,1181.8,533.2z"/>
</g>
<g id="RCC_Milkshake">
	<path id="Rachel_Straw" class="st24" d="M423.4,626.1l10,82.9l8.8-1.3l-9.4-83.9C432.8,623.8,425.9,619.8,423.4,626.1z"/>
	<path id="Ross_Straw" class="st24" d="M621.8,572.1L504.6,718.8l8,4l117.9-146.9C630.6,575.9,634.3,568.3,621.8,572.1z"/>
	<path id="Chandler_Straw" class="st24" d="M228.8,557l181.3,166.2l-6.8,5.8L225.1,559.5C225,559.5,222.5,555.8,228.8,557z"/>
	<path id="Whipped_Cream" class="st25" d="M399.8,724.3c0,0,18.6,3.5,21.2-16.6c2.5-8.8,27.6-11.3,31.4-16.3s16.3-3.8,25.1,8.8
		c0,0,11.3,0,12.6,11.3c6.3-5,22,11.9,28.2,9.4S460.2,758.5,399.8,724.3z"/>
	<path id="Shake" class="st26" d="M518.2,720.9c-23.8,10-100.4,7.5-121.8-1.3c0,0-9-3.5-8.9,3.9c0.3-0.2,6.4,87.8,6.4,87.8
		c0,1.3,1.3,2.5,5,1.3l10,158.2c10,8.8,85,8.8,97.8,0c0.4,0,9-158.2,9-158.2c5-1.3,3.8-7.5,3.8-7.5l3.8-80.3
		C523.2,724.7,524.5,720.9,518.2,720.9z"/>
	<path id="Glass" class="st27" d="M399.8,828.1c0,0,13,123.8,15.5,127.6s72.8,18.8,87.9-5c0,0,8.8-64,12.6-135.6l-9,158.2
		c-12.8,3.3-30.3,6.5-51.3,6.3c-18.7-0.2-34.5-3.2-46.5-6.3C405.9,924.8,402.8,876.5,399.8,828.1z"/>
</g>
<g id="MJP_Milkshake">
	<path id="Monica_Straw" d="M969,625.5l49.6,92.2l9.2-5.7l-50-90.2C977.7,621.7,971.5,617.9,969,625.5z"/>
	<path id="Joey_Straw" d="M1105.8,574l-13.4,147h10.7l11.5-145.8C1114.6,575.2,1110.8,571.5,1105.8,574z"/>
	<path id="Phoebe_Straw" d="M1206.6,639.1l-118.4,80.6l6.7,8.8l118.9-81.3C1213.8,647.1,1218.3,637.6,1206.6,639.1z"/>
	<circle id="Cherry" class="st28" cx="1018.5" cy="710.2" r="13.8"/>
	<path id="Cherry_Stem" class="st29" d="M1024.8,697.9c0,0,5-16.5,0-39.1c0,0-3.7-2.5-2.4-11.3c1.3-8.8,6.8,4.8,4.7,8
		C1027,655.5,1029.7,691.8,1024.8,697.9z"/>
	<path id="Whipped_Cream_00000005248930476029037360000008143483495060487308_" class="st25" d="M1112.5,720.5
		c0,0-18.6,3.5-21.2-16.6c-2.5-8.8-27.6-11.3-31.4-16.3s-16.3-3.8-25.1,8.8c0,0-11.3,0-12.6,11.3c-6.3-5-22,11.9-28.2,9.4
		C987.8,714.6,1052,754.7,1112.5,720.5z"/>
	<path id="Shake_00000106825636885273010430000000942627846340391069_" class="st26" d="M994,717.1c23.8,10,100.4,7.5,121.8-1.3
		c0,0,9.1-3.5,8.9,3.9c-0.3-0.2-6.4,87.8-6.4,87.8c0,1.3-1.3,2.5-5,1.3l-10,158.2c-10,8.8-85,8.8-97.8,0c-0.4,0-9-158.2-9-158.2
		c-5-1.3-3.8-7.5-3.8-7.5l-3.8-80.3C989,720.9,987.8,717.1,994,717.1z"/>
	<path id="Glass_00000062891744608232664540000011740065602927785123_" class="st27" d="M1112.5,826.8c0,0-13,123.8-15.5,127.6
		s-72.8,18.8-87.9-5c0,0-8.8-64-12.6-135.6l9,158.2c12.8,3.3,30.3,6.5,51.3,6.3c18.7-0.2,34.5-3.2,46.4-6.3
		C1106.3,923.6,1109.4,875.2,1112.5,826.8z"/>
</g>
</svg>
