<?xml version="1.0" encoding="utf-8"?>
<!-- Generator: Adobe Illustrator 27.0.1, SVG Export Plug-In . SVG Version: 6.00 Build 0)  -->
<svg version="1.1" xmlns="http://www.w3.org/2000/svg" xmlns:xlink="http://www.w3.org/1999/xlink" x="0px" y="0px"
	 viewBox="0 0 1920 1280" style="enable-background:new 0 0 1920 1280;" xml:space="preserve">
<style type="text/css">
	.st0{fill:#FFFFFF;}
	.st1{fill:#CD9E8B;}
	.st2{display:none;}
	.st3{display:inline;fill:#000309;}
	.st4{font-family:'BrandonGrotesque-Black';}
	.st5{font-size:36px;}
	.st6{letter-spacing:7;}
	.st7{display:inline;}
	.st8{fill:#000309;}
	.st9{font-size:24px;}
	.st10{letter-spacing:4;}
	.st11{fill:#33BFC4;}
	.st12{fill:#99DFE1;}
	.st13{fill:#D6B39E;}
	.st14{fill:#714823;}
	.st15{fill:#E7CAC1;}
	.st16{fill:#04080B;}
	.st17{fill:#EDC4B7;}
	.st18{fill:#020F0A;}
	.st19{fill:#E7E9E8;}
	.st20{fill:#D8AE99;}
	.st21{fill:#04080F;}
	.st22{fill:#EDC4B4;}
	.st23{fill:#B4976D;}
	.st24{fill:#191806;}
	.st25{fill:#EDF4E2;}
	.st26{fill:#F5EEE4;}
	.st27{opacity:0.25;fill:#A1A8A5;}
	.st28{fill:#A43832;}
	.st29{fill:#71493D;}
</style>
<g id="Reference">
</g>
<g id="BG">
	<rect id="Blue" class="st0" width="1920" height="1280"/>
	<path id="Ross_x27_s_Neck" class="st1" d="M882.07,615.25c0,0,4.43,17.25,63.43-4.75c3-4,0.31-53.77-16.35-76.89
		S836.64,548.01,882.07,615.25"/>
</g>
<g id="Text" class="st2">
	<text transform="matrix(1 0 0 1 688.5627 1106.2168)" class="st3 st4 st5 st6">I’LL BE THERE FOR YOU</text>
	<text transform="matrix(1 0 0 1 859.1108 187.2168)" class="st7"><tspan x="0" y="0" class="st8 st4 st5 st6">FRIENDS</tspan><tspan x="20.86" y="28.8" class="st8 st4 st9 st10">1994-2004</tspan></text>
</g>
<g id="Table">
	
		<rect id="Bottom" x="409.9" y="1019.38" transform="matrix(0.9999 -0.0129 0.0129 0.9999 -13.3551 12.1995)" class="st11" width="1057.64" height="43.31"/>
	
		<rect id="Top" x="409.52" y="946.55" transform="matrix(0.9999 -0.0129 0.0129 0.9999 -12.6947 12.1953)" class="st12" width="1058.41" height="86.63"/>
</g>
<g id="Rachel">
	<path id="Face_00000165215981469652447690000001712876044890071938_" class="st13" d="M515.02,627.35
		c10.04,23.85,33.27,24.48,53.36,49.59c10.04,12.56,57.75,7.53,70.31-17.58c5.02-11.3,32.64-23.85,40.18-43.94
		c7.53-20.09,20.57-37.56-7.92-148.73C642.45,355.53,392.6,366.83,515.02,627.35z"/>
	<path id="Neck_00000168808589113193851130000016148125485829520061_" class="st13" d="M518.83,634.48c0,0,11.88,168.01-4.44,232.04
		C498.07,930.56,603,779.87,633.4,666.89C663.8,553.9,518.83,634.48,518.83,634.48z"/>
	<path id="Hair_00000109026599716188606680000012346897763147777958_" class="st14" d="M612.32,695.78c0,0,156.94-99.19,5.02-254.87
		c-21.34-3.77-146.84-14.4-69.03,171.71c-0.05-0.67-28.9-18.54-38.95-48.67c1.26,0-36.41,41.43,36.41,107.98
		c-1.26,1.26-8.79-2.51-11.3-5.02c0,0,6.28,11.3,10.04,13.81c0,0-61.52-1.26-94.16-55.24c-32.64-53.99,7.53-355.31,150.66-264.92
		c-1.26-13.81,8.79-13.81,12.56-5.02c0,0,38.92-21.34,59.01,26.37c10.04,2.51,27.62,11.3,43.94,43.94
		C732.85,458.48,794.37,681.97,612.32,695.78z"/>
</g>
<g id="Chandler">
	<path id="Neck" class="st15" d="M248.84,432.74l-26.37,18.83c0,0-0.44,248.59,117.8,155.68
		C339.46,607.27,248.84,432.74,248.84,432.74z"/>
	<path id="Face" class="st15" d="M260.77,458.48c0,0-21.34,6.28-21.34-46.45s16.32-41.24,21.34-40.71
		c5.02,0.53,17.89,22.67,19.62,42.99c0.94,0.46,55.72-90.17,55.72-90.17s90.82-26.13,151.5,67.29c0.83,1.02-5.23,82.75-27.83,85.26
		c0,0,8.79,48.97-52.1,104.84c-8.79,12.56-32.64,55.24-89.14,12.56C262.03,551.39,258.26,516.24,260.77,458.48z"/>
	<path id="Hair" class="st8" d="M239.43,437.61c0,0-7.53,2.04-10.04-11.77c1.26-10.04,2.51-32.64,20.09-71.56
		c0-25.11,2.51-57.75,18.83-62.78c0,0-6.28-38.92,59.01-61.52c1.26,0,28.18-20.09,69.33,0c0.7,1.26,3.29-9.07,19.71-8.93
		c1.46,0.28-18.73,10.18-6.18,15.21c1.26,1.26,16.32-6.28,53.99,20.09c-1.26,0-5.02,5.02-2.51,7.53c2.51,2.51,15.07,2.51,22.6,15.07
		c0,0,5.59-13.99,3.42-25.83c0.69-1.08,5.37,23.32,4.11,39.64c0,0,16.32-20.09,28.88-17.58c-1.26,0-26.37,10.04-21.34,31.39
		c0,0,25.11-7.53,32.64-5.02c0,0-28.88,6.28-28.88,10.04c10.04,3.77,10.17,8.34,16.38,9.19c0,0-2.57,0.85-0.06,7.13
		c0,0,2.51,17.04,12.56,23.59c0,0,7.53,20.36-13.81,34.17c-21.34,13.81-22.6,38.92-22.6,38.92s-1.92,16.03-16.66,23.71
		c0.67,0.29,4.1-47.57,6.61-53.84c0,0-42.69-13.81-71.56-37.67c-28.88-23.85-2.51,11.3-60.27-26.37c0,0-15.07,20.09-26.37,23.85
		s-32.86,68.27-45.94,73.06c-13.07,4.78-0.52-41.48-20.61-56.01c0,1.07-18.7-9.08-20.65,23.97s1.67,42.49,1.67,42.49L239.43,437.61z
		"/>
</g>
<g id="Ross">
	<path id="Face_00000095327697513123123530000003548512139281792440_" class="st1" d="M715.27,390.68
		c-4.01,10.67-0.58,26.47,0.94,39.17c1.88,15.72,5.34,30.51,10.36,33.65c-5.02,13.81,20.09,106.72,46.45,113
		c5.02,1.26,20.09,46.45,36.41,48.97c16.32,2.51,61.52,21.34,105.46-125.55c0.85,3.4,2.42,5.43,4.42,6.1
		c9.58,3.23,40.82-49.99,26.97-87.71c-12.24-33.34-54.5-42.47-90.4-50.22C801.24,356.28,726.86,359.86,715.27,390.68z"/>
	<path id="Hair_00000014618633640300093200000016916946954615223437_" class="st16" d="M715.25,422.7c0,0-7.52-16.95-6.26-35.78
		c-6.28,1.26-17.58-7.53-12.56-16.32c0,0-2.31,1.26-5.55,0c1.05,0,9.32-5.02,8.06-20.09c-1.26-8.79,7.53-11.3,8.79-21.34
		c1.26-10.04,71.56-106.72,141.87-70.31c0,0-2.51-6.28-16.32-11.3c0,0,10.04-2.51,17.58,3.77c0,0,2.51-7.53,5.02-7.53
		s-7.53,17.58,8.79,20.09c0,0,11.3-5.02,23.85,0c-1.26,1.26-13.81,1.26-7.53,6.28c0,0,102.99-0.8,65.93,191.07
		c-0.04-0.45,3.12-45.43-6.92-45.43c-10.04,0-42.38,13.62-31.39,51.48c-1.26,10.04-13.81,7.53-21.34-41.43
		c-21.34,0-31.39-76.59-172.01-35.15C715.27,390.68,712.73,405.75,715.25,422.7z"/>
</g>
<g id="Monica">
	<path id="Face_00000156547587364423049480000003274057195606676384_" class="st17" d="M1022.88,590.31c0,0,3.42,56.33,85.83,80.9
		c0,0,47,15.96,53.41-24.31c0,0,16.76-31.48,19.75-56.59c1.58-13.29,4.08-15.66,6.18-22.4c4.37-14.04,4.49-28.46,3.71-39.09
		c-0.41-5.54-1.08-9.6-1.26-10.71c-2.12-13.16-4.6-37.95-6.91-87.26c-9.55-4.32-42.72-18.6-81.72-6.5
		c-26.76,8.31-55.6,29.25-78.99,75.21l-5.02,64.38l-20.87-22.18l-15.54,25.95C981.44,567.71,1011.58,614.17,1022.88,590.31z"/>
	<path id="Neck_00000037686508653912463090000006912507012383720895_" class="st17" d="M1125.83,808.77c0,0,9.5-103.43,26.72-120.14
		l-21.33-14.3l-108.34-84.02l-64.22,48.76c1.52,21.78,3.37,26.41,4.8,26.47c3.34,0.15,5.43-24.4,9.83-24.38
		c4.28,0.02,7.3,23.29,7.53,25.11c2.32,18.38,0.72,32.46,0.63,33.27c-1.68,15.29,15.02,47.06,95.42,119.27
		C1076.86,818.82,1115.78,818.82,1125.83,808.77z"/>
	<path id="Hair_00000150061976486173323740000011258714735081523391_" class="st18" d="M1024.46,598.65c0,0-0.6,34.17,16.17,45.87
		c0.89,0.81-1.55,0.77-8.09-2.55c0,0,12.46,25.59,23.05,31.22c0,0-10.13,2.49-27.7-6.3c12.56,13.81,18.83,81.24-65.29,65.1
		c0,0.37,3.77-2.33,1.26-9.86c0,0,35.15-7.53,25.11-42.69c0,0,2.51,28.88-20.09,38.92c1.26,1.26,25.11-18.83,6.28-71.56
		c0,0-18.31,61.52-51.84,57.75c0.73,0,35.02-2.93,23.34-65.5c0.5-0.84-25.49-21.13-45.58,14.02c0,1.26,5.02-28.88,16.32-38.92
		c0-1.26,1.26-273.7,113-267.43c1.26-22.6,60.27-35.15,91.65,2.51c0,3.77,15.78-6.75,30.49,7.92
		c14.71,14.68,48.15,33.24,48.38,112.47s-10.27,228.64-72.19,234.92c-15.86,1.26,2.48-30.23,2.48-30.23s25.74,1.54,30.89-27.43
		c0,0,20.89-39.9,21.18-65.19c-0.51-9.99,1.33-10.56,3.46-15.95c3.29-8.32,5.65-24.54,4.99-36.93c-0.67-12.45-3.19-21.87-5.02-28.29
		c-4.27-14.97-11.71-38.01-24.61-67.49c-12.34-4.05-40.79-12.37-69.47,0.4c-28.46,12.68-57.1,45.78-67.26,124.21
		c0,0-18.83-8.79-16.32,27.62c2.51,1.26-6.28-2.51-1.26-27.62c0,1.26-8.83,2.49-11.32,28.87c0,0,15.08,20.1,26.38,3.78
		L1024.46,598.65z"/>
	<g id="Earrings">
		<ellipse id="bottom_2" class="st19" cx="1014.09" cy="611.66" rx="6.28" ry="10.04"/>
		<ellipse id="bottom_1" class="st19" cx="1004.04" cy="600.36" rx="3.77" ry="6.28"/>
		<circle id="top_2" class="st19" cx="1011.58" cy="595.33" r="2.51"/>
		<circle id="top_1" class="st19" cx="1002.79" cy="590.31" r="1.26"/>
	</g>
</g>
<g id="Joey">
	<path id="Head" class="st20" d="M1200.93,472.02c-3.53,12.83,30.36,90.68,52.96,104.49c5.02,13.81,35.15,86.63,96.68,3.77
		c6.28-8.79,21.34-133.09,12.56-168.24l8.79-33.9l-193.98-16.28C1177.93,361.84,1187.51,459.81,1200.93,472.02z"/>
	<path id="Hair_00000022527604520250963200000013905405642474540977_" class="st21" d="M1248.87,399.47
		c-6.52,3.32-46.5-43.96-68.45-15.7c0,0-30.74,0.63-28.22-29.5c2.51-30.13,18.83-66.54,32.64-64.03c1.26,0-9.79-2.76-13.06-0.12
		c1,0.25,9.29-6.15,14.31-6.15c-1.26,1.26,1.26-5.02-6.28-2.51c-1.26,0,5.02-8.79,12.56-7.53c0,0,2.51-3.77,0-6.28
		c0,0,10.04-2.51,13.81-1.26c0,0-3.77-5.02-8.79-3.77c0,0,8.79-6.28,16.32-5.02c0,0,1.26-2.51,0-3.77c0,0,7.43-2.51,13.13,0
		c0.1,0,0.68-5.02-6.85-5.02c0,0,5.02-3.77,21.34-2.51c0,0,1.26-6.28-8.79-3.77c0,0,8.79-6.28,20.09-3.77c0,0,6.28-2.51,1.26-3.77
		c0,0,0-5.02,17.58-1.26c0,0,1.26-2.51-1.26-3.77c1.26,0,3.14-4.39,20.72-4.39c17.58,0,15.69,3.14,15.69,3.14s22.6,2.51,32.64,18.83
		c0,0,3.77,0,2.51-5.02c0,0,7.53,0,13.81,11.3c0,0,15.07-1.26,23.85,5.02c-1.26,0-10.04-1.26-10.04,3.77c0,0,25.11-2.51,31.39,11.3
		c0,0-11.3-7.53-15.07-2.51c-1.26,0,17.58,17.58,21.34,18.83c0,0-8.79,0-10.04-2.51c0,1.26,10.04,13.81,13.81,16.32
		c0,0-2.51,1.26-3.77,1.26c0,0,3.77,33.9,8.79,33.9c0,0-5.02,2.51-5.02,0c1.26,0,1.26,11.3,1.26,13.81s-48.97,59.01-48.97,59.01
		s-8.79-6.28-10.04-10.04C1355.59,394.45,1315.41,365.57,1248.87,399.47z"/>
</g>
<g id="Phoebe">
	<path id="Neck_00000065034185896754898600000014580017605595414423_" class="st22" d="M1449.45,689.73c0,0,7.91,33.25,1.6,52.29
		c-6.31,19.04,145.73,22.19,133.11-71.04c1.13,0.62-18.65-13.08-29.44-74.5S1449.45,689.73,1449.45,689.73z"/>
	<path id="Bottom_Hair" class="st23" d="M1368.26,625.21c0,0,16.1,95.67-19,119.53c0.11,1.26,17.25-6.87,19.32-10.34
		c0.38-0.66-0.46,17.82-7.98,19.73c1.27,0.05,16.33-1.86,26.38-8.14c0,0-8.79,62.78-27.62,69.05c-1.26,0,8.79,0,18.83-10.04
		c-1.26,1.26,6.28,3.77-5.02,17.58c0,0,8.79,0,11.3-6.28c0,0,0,30.13-26.37,38.92c0,1.26,5.02,10.04,8.79,10.04
		c0,0-7.53,2.51-13.81,1.26c0,0,15.07,20.09,28.88,8.79c15.07,17.58,109.23-5.02,49.39-182.22
		C1376.38,530.33,1368.26,625.21,1368.26,625.21z"/>
	<path id="Face_00000011716400750872459330000004696926628442920636_" class="st22" d="M1351.8,529.86
		c22.62,15.25-37.64,22.78,40.2,133.27c-6.28,20.09,43.86,64.48,121.12-18.61c0,0,20.76-24.08,23.9-51.7
		c3.61,2.9,8.96,6.15,14.44,5.02c6.48-1.33,8.54-7.85,18.83-28.88c10.68-21.81,13.48-25.05,13.81-33.9
		c0.13-3.65,0.68-18.55-7.24-23.16c-8-4.67-23.47,1.84-36.11,17.96L1505,424.58l-141.87,60.27L1351.8,529.86z"/>
	<path class="st23" d="M1354.96,533.19c1.06,3.61-11.3-3.77-2.51-47.71c-10.04-12.56,6.57-65.21,11.45-65.88
		c-8.55,13.22-5.95-55.81,53.84-63.44c5.85-0.75,61.75-41.05,101.7-18.83c0,0,45.2,0,71.56,38.92
		c27.62,5.02,41.43,102.95,41.43,102.95s58.08,216.04,48.5,230.43c0,0,1.72,28.2-18.37,34.48c0,0-5.02,40.18-26.37,46.45
		c0,0-4.39,87.26-49.59,107.35c-45.2,20.09-79.1-11.3-79.1-11.3c60.27,5.02,50.22-92.91,50.22-92.91s-33.65-115.71-3.02-197.22
		c0,0,43.19-63.93,20.59-86.53c-2.51,0-21.34,36.41-30.13,40.18c-8.79,3.77-22.6-17.58-22.6-17.58s-13.81-66.54-32.64-71.56
		c-1.26-1.26-52.73,57.75-69.05,53.99c0,0,26.44-12.79,30.17-25.86c-0.07,0.24-22.63,17.07-32.68,15.81
		c0,1.26,20.09-8.79,25.11-18.83c0,0-26.37,16.32-31.39,15.07c1.26,1.26,40.18-23.85,41.43-33.9
		C1452.27,468.53,1351.82,522.51,1354.96,533.19z"/>
</g>
<g id="RCC_Milkshake">
	<path id="Rachel_Straw" class="st24" d="M596.63,626.09l10.04,82.86l8.79-1.26l-9.42-83.94
		C606.04,623.76,599.14,619.82,596.63,626.09z"/>
	<path id="Ross_Straw" class="st24" d="M795,572.11L677.82,718.79l8.05,3.97l117.92-146.88C803.79,575.87,807.55,568.34,795,572.11z
		"/>
	<path id="Chandler_Straw" class="st24" d="M402.02,557.04l181.31,166.24l-6.79,5.77l-178.28-169.5
		C398.25,559.55,395.74,555.79,402.02,557.04z"/>
	<path id="Whipped_Cream" class="st25" d="M572.97,724.31c0,0,18.63,3.48,21.15-16.6c2.51-8.79,27.62-11.3,31.39-16.32
		c3.77-5.02,16.32-3.77,25.11,8.79c0,0,11.3,0,12.56,11.3c6.28-5.02,21.97,11.93,28.25,9.42
		C697.7,718.38,633.43,758.49,572.97,724.31z"/>
	<path id="Shake" class="st26" d="M691.42,720.89c-23.85,10.04-100.44,7.53-121.79-1.26c0,0-9.05-3.54-8.92,3.88
		c0.26-0.23,6.41,87.77,6.41,87.77c0,1.26,1.26,2.51,5.02,1.26l10.04,158.2c10.04,8.79,85.02,8.79,97.75,0
		c0.36,0,8.97-158.2,8.97-158.2c5.02-1.26,3.77-7.53,3.77-7.53l3.77-80.35C696.44,724.65,697.7,720.89,691.42,720.89z"/>
	<path id="Glass" class="st27" d="M572.97,828.07c0,0,12.98,123.83,15.5,127.6c2.51,3.77,72.82,18.83,87.89-5.02
		c0,0,8.79-64.03,12.56-135.6l-8.97,158.2c-12.77,3.34-30.34,6.54-51.3,6.28c-18.71-0.23-34.53-3.16-46.45-6.28
		C579.11,924.85,576.04,876.46,572.97,828.07z"/>
</g>
<g id="MJP_Milkshake">
	<path id="Monica_Straw" d="M1142.15,625.47l49.59,92.2l9.18-5.73l-49.99-90.24C1150.94,621.7,1144.66,617.93,1142.15,625.47z"/>
	<path id="Joey_Straw" d="M1279,573.99l-13.37,147.02h10.68l11.48-145.77C1287.79,575.25,1284.03,571.48,1279,573.99z"/>
	<path id="Phoebe_Straw" d="M1379.81,639.07l-118.38,80.56l6.65,8.78l118.89-81.34C1386.97,647.07,1391.48,637.6,1379.81,639.07z"/>
	<circle id="Cherry" class="st28" cx="1191.74" cy="710.22" r="13.81"/>
	<path id="Cherry_Stem" class="st29" d="M1197.96,697.89c0,0,4.96-16.49,0-39.12c0,0-3.71-2.54-2.45-11.33
		c1.26-8.79,6.8,4.79,4.65,8.05C1200.17,655.49,1202.92,691.85,1197.96,697.89z"/>
	<path id="Whipped_Cream_00000005248930476029037360000008143483495060487308_" class="st25" d="M1285.68,720.54
		c0,0-18.63,3.48-21.15-16.6c-2.51-8.79-27.62-11.3-31.39-16.32s-16.32-3.77-25.11,8.79c0,0-11.3,0-12.56,11.3
		c-6.28-5.02-21.97,11.93-28.25,9.42C1160.96,714.61,1225.22,754.72,1285.68,720.54z"/>
	<path id="Shake_00000106825636885273010430000000942627846340391069_" class="st26" d="M1167.23,717.12
		c23.85,10.04,100.44,7.53,121.79-1.26c0,0,9.05-3.54,8.92,3.88c-0.26-0.23-6.41,87.77-6.41,87.77c0,1.26-1.26,2.51-5.02,1.26
		l-10.04,158.2c-10.04,8.79-85.02,8.79-97.75,0c-0.36,0-8.97-158.2-8.97-158.2c-5.02-1.26-3.77-7.53-3.77-7.53l-3.77-80.35
		C1162.21,720.89,1160.96,717.12,1167.23,717.12z"/>
	<path id="Glass_00000062891744608232664540000011740065602927785123_" class="st27" d="M1285.68,826.81
		c0,0-12.98,123.83-15.5,127.6c-2.51,3.77-72.82,18.83-87.89-5.02c0,0-8.79-64.03-12.56-135.6l8.97,158.2
		c12.77,3.34,30.34,6.54,51.3,6.28c18.71-0.23,34.53-3.16,46.45-6.28C1279.54,923.6,1282.61,875.21,1285.68,826.81z"/>
</g>
</svg>
