<?xml version="1.0" encoding="utf-8"?>
<!-- Generator: Adobe Illustrator 27.0.1, SVG Export Plug-In . SVG Version: 6.00 Build 0)  -->
<svg version="1.1" id="Layer_1" xmlns="http://www.w3.org/2000/svg" xmlns:xlink="http://www.w3.org/1999/xlink" x="0px" y="0px"
	 viewBox="0 0 1020 1020" style="enable-background:new 0 0 1020 1020;" xml:space="preserve">
<style type="text/css">
	.st0{display:none;}
	.st1{display:inline;fill:#FFFFFF;}
	.st2{display:inline;fill:#CD9E8B;}
	.st3{display:inline;fill:#000309;}
	.st4{font-family:'BrandonGrotesque-Black';}
	.st5{font-size:36px;}
	.st6{letter-spacing:3;}
	.st7{font-size:24px;}
	.st8{fill:#33BFC4;}
	.st9{fill:#99DFE1;}
	.st10{fill:#D6B39E;}
	.st11{fill:#714823;}
	.st12{fill:#E7CAC1;}
	.st13{fill:#000309;}
	.st14{fill:#CD9E8B;}
	.st15{fill:#04080B;}
	.st16{fill:#EDC4B7;}
	.st17{fill:#020F0A;}
	.st18{fill:#E7E9E8;}
	.st19{fill:#D8AE99;}
	.st20{fill:#04080F;}
	.st21{fill:#EDC4B4;}
	.st22{fill:#B4976D;}
	.st23{fill:#191806;}
	.st24{fill:#EDF4E2;}
	.st25{fill:#F5EEE4;}
	.st26{opacity:0.25;fill:#A1A8A5;enable-background:new    ;}
	.st27{fill:#A43832;}
	.st28{fill:#71493D;}
</style>
<g id="Reference" class="st0">
</g>
<g id="BG" class="st0">
	<rect id="Blue" x="-450" y="-130" class="st1" width="1920" height="1280"/>
	<path id="Ross_x27_s_Neck" class="st2" d="M432.1,485.2c0,0,4.4,17.2,63.4-4.8c3-4,0.3-53.8-16.3-76.9S386.6,418,432.1,485.2"/>
</g>
<g id="Text" class="st0">
	<text transform="matrix(1 0 0 1 238.5741 976.2168)" class="st3 st4 st5 st6">I’LL BE THERE FOR YOU</text>
	<text transform="matrix(1 0 0 1 409.1222 57.2168)" class="st3 st4 st5 st6">FRIENDS</text>
	<text transform="matrix(1 0 0 1 429.9823 86.0168)" class="st3 st4 st7 st6">1994-2004</text>
</g>
<g id="Table">
	
		<rect id="Bottom" x="156.27" y="753.9" transform="matrix(0.9999 -0.0129 0.0129 0.9999 -9.863 6.4314)" class="st8" width="674.61" height="27.62"/>
	
		<rect id="Top" x="156.02" y="707.4" transform="matrix(0.9999 -0.0129 0.0129 0.9999 -9.4413 6.4287)" class="st9" width="675.12" height="55.24"/>
</g>
<g id="Rachel">
	<path id="Face_00000165215981469652447690000001712876044890071938_" class="st10" d="M223.31,503.79
		c6.38,15.18,21.24,15.63,34.06,31.64c6.38,8.04,36.87,4.78,44.84-11.23c3.19-7.21,20.79-15.18,25.64-28
		c4.78-12.82,13.14-23.98-5.04-94.85C304.64,330.42,145.24,337.63,223.31,503.79z"/>
	<path id="Neck_00000168808589113193851130000016148125485829520061_" class="st10" d="M225.74,508.39c0,0,7.59,107.16-2.81,147.99
		c-10.4,40.82,56.52-55.24,75.91-127.32S225.74,508.39,225.74,508.39z"/>
	<path id="Hair_00000109026599716188606680000012346897763147777958_" class="st11" d="M285.38,547.49c0,0,100.08-63.28,3.19-162.6
		c-13.59-2.42-93.64-9.19-44.01,109.52c0-0.45-18.43-11.8-24.88-31.06c0.83,0-23.22,26.41,23.22,68.89
		c-0.83,0.83-5.61-1.59-7.21-3.19c0,0,4.02,7.21,6.38,8.8c0,0-39.23-0.83-60.09-35.21c-20.79-34.45,4.78-226.64,96.13-168.97
		c-0.83-8.8,5.61-8.8,8.04-3.19c0,0,24.81-13.59,37.63,16.84c6.38,1.59,17.61,7.21,28,28C362.24,396.12,401.54,538.69,285.38,547.49
		z"/>
</g>
<g id="Chandler">
	<path id="Neck" class="st12" d="M53.51,379.66l-16.84,11.99c0,0-0.26,158.58,75.14,99.32C111.37,491.04,53.51,379.66,53.51,379.66z
		"/>
	<path id="Face" class="st12" d="M61.17,396.12c0,0-13.59,4.02-13.59-29.66s10.4-26.28,13.59-25.96s11.42,14.48,12.5,27.43
		c0.57,0.32,35.53-57.54,35.53-57.54s57.92-16.65,96.64,42.93c0.51,0.64-3.32,52.82-17.73,54.41c0,0,5.61,31.26-33.23,66.85
		c-5.61,8.04-20.79,35.21-56.83,8.04C61.93,455.38,59.57,432.93,61.17,396.12z"/>
	<path id="Hair" class="st13" d="M47.51,382.79c0,0-4.78,1.28-6.38-7.53c0.83-6.38,1.59-20.79,12.82-45.67
		c0-16.01,1.59-36.87,11.99-40.06c0,0-4.02-24.81,37.63-39.23c0.83,0,17.99-12.82,44.2,0c0.45,0.83,2.1-5.8,12.57-5.68
		c0.96,0.19-11.93,6.51-3.95,9.7c0.83,0.83,10.4-4.02,34.45,12.82c-0.83,0-3.19,3.19-1.59,4.78s9.63,1.59,14.42,9.63
		c0,0,3.57-8.93,2.17-16.46c0.45-0.7,3.44,14.86,2.62,25.26c0,0,10.4-12.82,18.43-11.23c-0.83,0-16.84,6.38-13.59,20.03
		c0,0,16.01-4.78,20.79-3.19c0,0-18.43,4.02-18.43,6.38c6.38,2.42,6.51,5.29,10.46,5.87c0,0-1.66,0.57-0.06,4.53
		c0,0,1.59,10.84,8.04,15.05c0,0,4.78,13.01-8.8,21.82c-13.59,8.8-14.42,24.81-14.42,24.81s-1.21,10.21-10.65,15.12
		c0.45,0.19,2.62-30.36,4.21-34.32c0,0-27.24-8.8-45.67-24.05s-1.59,7.21-38.46-16.84c0,0-9.63,12.82-16.84,15.25
		c-7.21,2.42-20.99,43.57-29.28,46.63c-8.36,3.06-0.32-26.47-13.14-35.72c0,0.7-11.93-5.8-13.14,15.31s1.08,27.11,1.08,27.11
		L47.51,382.79z"/>
</g>
<g id="Ross">
	<path id="Face_00000095327697513123123530000003548512139281792440_" class="st14" d="M351.08,352.87c-2.55,6.83-0.38,16.9,0.57,25
		c1.21,10.01,3.38,19.46,6.63,21.43c-3.19,8.8,12.82,68.06,29.66,72.08c3.19,0.83,12.82,29.66,23.22,31.26
		c10.4,1.59,39.23,13.59,67.3-80.05c0.51,2.17,1.53,3.44,2.81,3.89c6.12,2.04,26.03-31.89,17.22-55.94
		c-7.78-21.24-34.76-27.11-57.66-32.02C405.88,330.93,358.48,333.23,351.08,352.87z"/>
	<path id="Hair_00000014618633640300093200000016916946954615223437_" class="st15" d="M351.02,373.28c0,0-4.78-10.84-4.02-22.84
		c-4.02,0.83-11.23-4.78-8.04-10.4c0,0-1.47,0.83-3.51,0c0.64,0,5.93-3.19,5.17-12.82c-0.83-5.61,4.78-7.21,5.61-13.59
		c0.83-6.38,45.67-68.06,90.51-44.84c0,0-1.59-4.02-10.4-7.21c0,0,6.38-1.59,11.23,2.42c0,0,1.59-4.78,3.19-4.78
		s-4.78,11.23,5.61,12.82c0,0,7.21-3.19,15.18,0c-0.83,0.83-8.8,0.83-4.78,4.02c0,0,65.7-0.51,42.04,121.9
		c0-0.32,1.98-28.96-4.4-28.96s-27.05,8.68-20.03,32.85c-0.83,6.38-8.8,4.78-13.59-26.41c-13.59,0-20.03-48.86-109.72-22.39
		C351.08,352.87,349.42,362.5,351.02,373.28z"/>
</g>
<g id="Monica">
	<path id="Face_00000156547587364423049480000003274057195606676384_" class="st16" d="M547.29,480.19c0,0,2.17,35.91,54.73,51.6
		c0,0,29.98,10.21,34.06-15.5c0,0,10.72-20.09,12.63-36.1c1.02-8.48,2.62-10.01,3.95-14.29c2.81-8.93,2.87-18.18,2.36-24.94
		c-0.26-3.51-0.7-6.12-0.83-6.83c-1.34-8.42-2.93-24.24-4.4-55.69c-6.12-2.74-27.24-11.86-52.11-4.15
		c-17.1,5.29-35.47,18.63-50.39,47.97l-3.19,41.08l-13.33-14.1l-9.89,16.58C520.82,465.78,540.08,495.44,547.29,480.19z"/>
	<path id="Neck_00000037686508653912463090000006912507012383720895_" class="st16" d="M612.93,619.57c0,0,6.06-65.96,17.03-76.61
		l-13.59-9.12l-69.08-53.58l-40.95,31.13c0.96,13.91,2.17,16.84,3.06,16.9c2.11,0.13,3.44-15.56,6.25-15.56
		c2.74,0,4.66,14.86,4.78,16.01c1.47,11.74,0.45,20.73,0.38,21.24c-1.08,9.76,9.57,30.04,60.85,76.1
		C581.74,625.95,606.55,625.95,612.93,619.57z"/>
	<path id="Hair_00000150061976486173323740000011258714735081523391_" class="st17" d="M548.31,485.55c0,0-0.38,21.82,10.33,29.28
		c0.57,0.51-1.02,0.51-5.17-1.59c0,0,7.97,16.33,14.73,19.9c0,0-6.44,1.59-17.67-4.02c8.04,8.8,11.99,51.8-41.65,41.53
		c0,0.26,2.42-1.47,0.83-6.32c0,0,22.45-4.78,16.01-27.24c0,0,1.59,18.43-12.82,24.81c0.83,0.83,16.01-11.99,4.02-45.67
		c0,0-11.67,39.23-33.04,36.87c0.45,0,22.33-1.85,14.86-41.78c0.32-0.51-16.27-13.46-29.09,8.93c0,0.83,3.19-18.43,10.4-24.81
		c0-0.83,0.83-174.59,72.08-170.57c0.83-14.42,38.46-22.39,58.49,1.59c0,2.42,10.08-4.34,19.46,5.04
		c9.38,9.38,30.75,21.18,30.87,71.76s-6.57,145.82-46.05,149.84c-10.14,0.83,1.59-19.26,1.59-19.26s16.39,0.96,19.71-17.48
		c0,0,13.33-25.45,13.52-41.59c-0.32-6.38,0.83-6.76,2.23-10.21c2.1-5.29,3.64-15.63,3.19-23.54c-0.45-7.97-2.04-13.97-3.19-18.05
		c-2.74-9.57-7.46-24.24-15.69-43.06c-7.85-2.55-26.03-7.91-44.33,0.26c-18.18,8.1-36.42,29.21-42.93,79.22
		c0,0-11.99-5.61-10.4,17.61c1.59,0.83-4.02-1.59-0.83-17.61c0,0.83-5.61,1.59-7.21,18.43c0,0,9.63,12.82,16.84,2.42L548.31,485.55z
		"/>
	<g id="Earrings">
		<ellipse id="bottom_2" class="st18" cx="541.68" cy="493.84" rx="4.02" ry="6.38"/>
		<ellipse id="bottom_1" class="st18" cx="535.24" cy="486.64" rx="2.42" ry="4.02"/>
		<circle id="top_2" class="st18" cx="540.08" cy="483.38" r="1.59"/>
		<circle id="top_1" class="st18" cx="534.47" cy="480.19" r="0.83"/>
	</g>
</g>
<g id="Joey">
	<path id="Head" class="st19" d="M660.84,404.73c-2.23,8.16,19.39,57.86,33.81,66.66c3.19,8.8,22.45,55.24,61.68,2.42
		c4.02-5.61,13.59-84.9,8.04-107.29l5.61-21.62l-123.75-10.4C646.16,334.44,652.29,396.95,660.84,404.73z"/>
	<path id="Hair_00000022527604520250963200000013905405642474540977_" class="st20" d="M691.45,358.49
		c-4.15,2.1-29.66-28.07-43.63-10.01c0,0-19.58,0.38-17.99-18.82c1.59-19.2,11.99-42.42,20.79-40.82c0.83,0-6.25-1.79-8.36-0.06
		c0.64,0.13,5.93-3.89,9.12-3.89c-0.83,0.83,0.83-3.19-4.02-1.59c-0.83,0,3.19-5.61,8.04-4.78c0,0,1.59-2.42,0-4.02
		c0,0,6.38-1.59,8.8-0.83c0,0-2.42-3.19-5.61-2.42c0,0,5.61-4.02,10.4-3.19c0,0,0.83-1.59,0-2.42c0,0,4.72-1.59,8.36,0
		c0.06,0,0.45-3.19-4.34-3.19c0,0,3.19-2.42,13.59-1.59c0,0,0.83-4.02-5.61-2.42c0,0,5.61-4.02,12.82-2.42c0,0,4.02-1.59,0.83-2.42
		c0,0,0-3.19,11.23-0.83c0,0,0.83-1.59-0.83-2.42c0.83,0,1.98-2.81,13.2-2.81c11.23,0,10.01,1.98,10.01,1.98s14.42,1.59,20.79,11.99
		c0,0,2.42,0,1.59-3.19c0,0,4.78,0,8.8,7.21c0,0,9.63-0.83,15.18,3.19c-0.83,0-6.38-0.83-6.38,2.42c0,0,16.01-1.59,20.03,7.21
		c0,0-7.21-4.78-9.63-1.59c-0.83,0,11.23,11.23,13.59,11.99c0,0-5.61,0-6.38-1.59c0,0.83,6.38,8.8,8.8,10.4c0,0-1.59,0.83-2.42,0.83
		c0,0,2.42,21.62,5.61,21.62c0,0-3.19,1.59-3.19,0c0.83,0,0.83,7.21,0.83,8.8s-31.26,37.63-31.26,37.63s-5.61-4.02-6.38-6.38
		C759.52,355.3,733.87,336.86,691.45,358.49z"/>
</g>
<g id="Phoebe">
	<path id="Neck_00000065034185896754898600000014580017605595414423_" class="st21" d="M819.35,543.6c0,0,5.04,21.18,1.02,33.36
		s92.94,14.16,84.9-45.29c0.7,0.38-11.93-8.36-18.75-47.52C879.69,444.98,819.35,543.6,819.35,543.6z"/>
	<path id="Bottom_Hair" class="st22" d="M767.62,502.45c0,0,10.27,61.04-12.12,76.23c0.06,0.83,10.97-4.4,12.31-6.57
		c0.26-0.45-0.32,11.35-5.1,12.57c0.83,0,10.4-1.21,16.84-5.17c0,0-5.61,40.06-17.61,44.01c-0.83,0,5.61,0,11.99-6.38
		c-0.83,0.83,4.02,2.42-3.19,11.23c0,0,5.61,0,7.21-4.02c0,0,0,19.2-16.84,24.81c0,0.83,3.19,6.38,5.61,6.38c0,0-4.78,1.59-8.8,0.83
		c0,0,9.63,12.82,18.43,5.61c9.63,11.23,69.66-3.19,31.51-116.22C772.78,441.92,767.62,502.45,767.62,502.45z"/>
	<path id="Face_00000011716400750872459330000004696926628442920636_" class="st21" d="M757.09,441.67
		c14.42,9.7-23.98,14.54,25.64,85.03c-4.02,12.82,28,41.14,77.25-11.86c0,0,13.27-15.37,15.25-32.98c2.3,1.85,5.74,3.95,9.19,3.19
		c4.15-0.83,5.42-4.98,11.99-18.43c6.83-13.91,8.61-15.95,8.8-21.62c0.06-2.36,0.45-11.8-4.59-14.8c-5.1-3-14.99,1.15-23.03,11.48
		l-22.77-67.17l-90.52,38.46L757.09,441.67z"/>
	<path class="st22" d="M759.13,443.77c0.7,2.3-7.21-2.42-1.59-30.43c-6.38-8.04,4.21-41.59,7.27-42.04
		c-5.49,8.42-3.76-35.59,34.32-40.44c3.7-0.51,39.42-26.15,64.87-11.99c0,0,28.83,0,45.67,24.81c17.61,3.19,26.41,65.7,26.41,65.7
		s37.06,137.78,30.94,146.97c0,0,1.08,17.99-11.74,22.01c0,0-3.19,25.64-16.84,29.66c0,0-2.81,55.69-31.64,68.44
		c-28.83,12.82-50.46-7.21-50.46-7.21c38.46,3.19,32.02-59.26,32.02-59.26s-21.5-73.8-1.91-125.79c0,0,27.56-40.76,13.14-55.18
		c-1.59,0-13.59,23.22-19.2,25.64c-5.61,2.42-14.42-11.23-14.42-11.23s-8.8-42.42-20.79-45.67c-0.83-0.83-33.62,36.87-44.08,34.45
		c0,0,16.84-8.16,19.26-16.52c-0.06,0.13-14.42,10.91-20.86,10.08c0,0.83,12.82-5.61,16.01-11.99c0,0-16.84,10.4-20.03,9.63
		c0.83,0.83,25.64-15.25,26.41-21.62C821.2,402.5,757.09,436.94,759.13,443.77z"/>
</g>
<g id="RCC_Milkshake">
	<path id="Rachel_Straw" class="st23" d="M275.37,503.03l6.38,52.88l5.61-0.83l-6-53.52C281.36,501.56,276.96,499.01,275.37,503.03z
		"/>
	<path id="Ross_Straw" class="st23" d="M401.92,468.58l-74.76,93.58l5.1,2.55l75.21-93.7C407.53,471.01,409.89,466.16,401.92,468.58
		z"/>
	<path id="Chandler_Straw" class="st23" d="M151.23,458.95l115.65,106.02l-4.34,3.7L148.87,460.55
		C148.81,460.55,147.22,458.19,151.23,458.95z"/>
	<path id="Whipped_Cream" class="st24" d="M260.31,565.67c0,0,11.86,2.23,13.52-10.59c1.59-5.61,17.61-7.21,20.03-10.4
		c2.42-3.19,10.4-2.42,16.01,5.61c0,0,7.21,0,8.04,7.21c4.02-3.19,14.03,7.59,17.99,6C339.85,561.91,298.84,587.48,260.31,565.67z"
		/>
	<path id="Shake" class="st25" d="M335.84,563.5c-15.18,6.38-64.04,4.78-77.69-0.83c0,0-5.74-2.23-5.68,2.49
		c0.19-0.13,4.08,56.01,4.08,56.01c0,0.83,0.83,1.59,3.19,0.83l6.38,100.91c6.38,5.61,54.22,5.61,62.38,0
		c0.26,0,5.74-100.91,5.74-100.91c3.19-0.83,2.42-4.78,2.42-4.78l2.42-51.22C339.03,565.92,339.85,563.5,335.84,563.5z"/>
	<path id="Glass" class="st26" d="M260.31,631.88c0,0,8.29,78.97,9.89,81.39c1.59,2.42,46.44,11.99,56.07-3.19
		c0,0,5.61-40.82,8.04-86.5l-5.74,100.91c-8.16,2.1-19.33,4.15-32.72,4.02c-11.93-0.13-22.01-2.04-29.66-4.02
		C264.2,693.56,262.22,662.75,260.31,631.88z"/>
</g>
<g id="MJP_Milkshake">
	<path id="Monica_Straw" d="M623.39,502.65l31.64,58.81l5.87-3.64l-31.89-57.54C628.94,500.22,624.99,497.8,623.39,502.65z"/>
	<path id="Joey_Straw" d="M710.65,469.8l-8.55,93.77h6.83l7.34-93C716.27,470.56,713.84,468.2,710.65,469.8z"/>
	<path id="Phoebe_Straw" d="M774.95,511.32l-75.52,51.41l4.27,5.61l75.84-51.86C779.54,516.42,782.41,510.36,774.95,511.32z"/>
	
		<ellipse id="Cherry" transform="matrix(0.1602 -0.9871 0.9871 0.1602 0.5663 1114.0148)" class="st27" cx="654.97" cy="556.67" rx="8.8" ry="8.8"/>
	<path id="Cherry_Stem" class="st28" d="M658.99,548.83c0,0,3.19-10.52,0-24.94c0,0-2.36-1.59-1.53-7.21c0.83-5.61,4.34,3.06,3,5.1
		C660.39,521.78,662.11,544.94,658.99,548.83z"/>
	<path id="Whipped_Cream_00000005248930476029037360000008143483495060487308_" class="st24" d="M714.93,563.24
		c0,0-11.86,2.23-13.52-10.59c-1.59-5.61-17.61-7.21-20.03-10.4c-2.42-3.19-10.4-2.42-16.01,5.61c0,0-7.21,0-8.04,7.21
		c-4.02-3.19-14.03,7.59-17.99,6C635.38,559.48,676.34,585.06,714.93,563.24z"/>
	<path id="Shake_00000106825636885273010430000000942627846340391069_" class="st25" d="M639.34,561.08
		c15.18,6.38,64.04,4.78,77.69-0.83c0,0,5.8-2.23,5.68,2.49c-0.19-0.13-4.08,56.01-4.08,56.01c0,0.83-0.83,1.59-3.19,0.83
		l-6.38,100.91c-6.38,5.61-54.22,5.61-62.38,0c-0.26,0-5.74-100.91-5.74-100.91c-3.19-0.83-2.42-4.78-2.42-4.78l-2.42-51.22
		C636.15,563.5,635.38,561.08,639.34,561.08z"/>
	<path id="Glass_00000062891744608232664540000011740065602927785123_" class="st26" d="M714.93,631.05c0,0-8.29,78.97-9.89,81.39
		c-1.59,2.42-46.44,11.99-56.07-3.19c0,0-5.61-40.82-8.04-86.5l5.74,100.91c8.16,2.1,19.33,4.15,32.72,4.02
		c11.93-0.13,22.01-2.04,29.6-4.02C710.97,692.8,712.95,661.92,714.93,631.05z"/>
</g>
</svg>
